<svg xmlns="http://www.w3.org/2000/svg" viewBox="0 0 160 40" fill="none">
  <rect width="160" height="40" rx="12" fill="#155EEF"/>
  <path d="M23 12h11.2c5.1 0 8.3 2.9 8.3 7.5S39.3 27 34.2 27H28v6h-5V12Zm10.5 10.8c2.4 0 3.9-1.2 3.9-3.3s-1.5-3.3-3.9-3.3H28v6.6h5.5Z" fill="#fff"/>
  <path d="M52 33V12h5v21h-5Zm9.3 0V17.3H66V33h-4.7Zm2.3-18.4c-1.6 0-2.8-1.1-2.8-2.6 0-1.4 1.2-2.6 2.8-2.6 1.6 0 2.8 1.2 2.8 2.6 0 1.5-1.2 2.6-2.8 2.6Z" fill="#fff"/>
  <path d="M78.5 33.4c-4.9 0-8.3-3.5-8.3-8.3 0-4.8 3.4-8.3 8.3-8.3 3.8 0 6.8 2 7.7 5.3H81c-.5-1.1-1.4-1.8-2.7-1.8-2 0-3.4 1.7-3.4 4.8 0 3.1 1.4 4.8 3.4 4.8 1.3 0 2.3-.7 2.7-1.8h5.2c-.9 3.2-3.9 5.3-7.7 5.3Z" fill="#fff"/>
  <path d="M96.9 33.4c-4.8 0-8.2-3.4-8.2-8.3 0-4.8 3.4-8.3 8.1-8.3 4.7 0 8 3.4 8 8.1v1.3H93.3c.2 2.3 1.5 3.7 3.7 3.7 1.4 0 2.4-.6 3-1.7h4.7c-.9 3-3.9 5.2-7.8 5.2Zm-3.4-9.9h6.5c-.2-1.9-1.5-3.1-3.2-3.1-1.8 0-3.1 1.2-3.3 3.1Z" fill="#fff"/>
  <path d="M108 33V12h5v21h-5Zm9.1 0V12h5v16.8h8.3V33h-13.3Z" fill="#fff"/>
</svg>
